<svg xmlns="http://www.w3.org/2000/svg" width="142" height="142" viewBox="0 0 142 142" xmlns:xlink="http://www.w3.org/1999/xlink">
  <defs>
    <circle id="b" cx="56" cy="56" r="56"/>
    <filter id="a" width="144.6%" height="144.6%" x="-22.3%" y="-17.9%" filterUnits="objectBoundingBox">
      <feOffset dy="5" in="SourceAlpha" result="shadowOffsetOuter1"/>
      <feGaussianBlur stdDeviation="7.5" in="shadowOffsetOuter1" result="shadowBlurOuter1"/>
      <feColorMatrix values="0 0 0 0 0.440703533 0 0 0 0 0.503310129 0 0 0 0 0.68486926 0 0 0 0.2 0" in="shadowBlurOuter1"/>
    </filter>
    <linearGradient id="c" x1="14.621%" x2="85.331%" y1="85.348%" y2="14.638%">
      <stop stop-color="#FA6D62" offset="0%"/>
      <stop stop-color="#FCBF6E" offset="100%"/>
    </linearGradient>
    <linearGradient id="d" x1="49.976%" x2="49.976%" y1="103.428%" y2="-35.43%">
      <stop stop-color="#FFFFFF" offset="0%"/>
      <stop stop-color="#FFFFFF" stop-opacity="0" offset="100%"/>
    </linearGradient>
    <linearGradient id="e" x1="50.146%" x2="50.146%" y1="103.665%" y2="-35.505%">
      <stop stop-color="#FFFFFF" offset="0%"/>
      <stop stop-color="#FFFFFF" stop-opacity="0" offset="100%"/>
    </linearGradient>
    <linearGradient id="f" x1="50.083%" x2="50.083%" y1="103.528%" y2="-35.458%">
      <stop stop-color="#FFFFFF" offset="0%"/>
      <stop stop-color="#FFFFFF" stop-opacity="0" offset="100%"/>
    </linearGradient>
  </defs>
  <g fill="none" fill-rule="evenodd" transform="translate(15 10)">
    <use fill="black" filter="url(#a)" xlink:href="#b"/>
    <use fill="#FFFFFF" xlink:href="#b"/>
    <circle cx="56.2" cy="56.1" r="48" fill="url(#c)" fill-rule="nonzero"/>
    <path fill="url(#d)" fill-rule="nonzero" d="M80.4,14.7 C75.8,11.9 70.6,10 65.1,8.9 C62.2,8.4 59.2,8.1 56.2,8.1 C53.1,8.1 50.2,8.4 47.3,8.9 C41.8,9.9 36.6,11.9 32,14.6 C17.7,23 8.2,38.4 8.2,56.1 C8.2,66.7 11.7,76.6 17.5,84.5 C18,84.5 18.6,84.6 19.1,84.6 C20.3,84.6 21.4,84.5 22.4,84.4 C23.7,84.2 24.9,83.9 25.9,83.5 C26,83.4 26.2,83.4 26.3,83.3 C26.7,83.1 27.1,83 27.5,82.8 C27.6,82.7 27.8,82.7 27.9,82.6 C28,82.5 28.2,82.5 28.3,82.4 C28.5,82.3 28.7,82.2 28.9,82.1 C29,82 29.2,82 29.3,81.9 C29.6,81.8 29.8,81.7 30.1,81.5 C30.2,81.5 30.2,81.4 30.3,81.4 C30.4,81.3 30.6,81.3 30.7,81.2 C30.8,81.1 31,81.1 31.1,81 C31.2,80.9 31.4,80.9 31.5,80.8 C31.6,80.7 31.8,80.7 31.9,80.6 C32.1,80.5 32.4,80.5 32.6,80.4 C32.7,80.4 32.8,80.4 32.8,80.3 C33,80.3 33.1,80.2 33.3,80.2 C34.5,79.9 35.9,79.8 37.6,79.8 C38.5,79.8 39.4,79.8 40.2,79.9 C40.3,79.9 40.4,79.9 40.5,79.9 C40.6,79.9 40.8,79.9 40.9,80 C41.1,80 41.4,80.1 41.6,80.1 C42.3,80.2 42.9,80.4 43.4,80.6 C47.5,81.9 49.4,84.4 56,84.4 C56.2,84.4 56.4,84.4 56.6,84.4 C56.7,84.4 56.7,84.4 56.8,84.4 C56.9,84.4 57.1,84.4 57.2,84.4 C57.3,84.4 57.3,84.4 57.4,84.4 C57.5,84.4 57.6,84.4 57.7,84.4 C57.8,84.4 57.9,84.4 57.9,84.4 C58,84.4 58.1,84.4 58.2,84.4 C58.3,84.4 58.4,84.4 58.4,84.4 C58.5,84.4 58.5,84.4 58.6,84.4 C58.6,84.4 58.6,84.4 58.7,84.4 C58.8,84.4 58.8,84.4 58.9,84.4 C58.9,84.4 58.9,84.4 58.9,84.4 C59,84.4 59.1,84.4 59.2,84.4 C59.3,84.4 59.3,84.4 59.4,84.4 C59.4,84.4 59.5,84.4 59.5,84.4 C59.6,84.4 59.6,84.4 59.7,84.4 C59.8,84.4 59.8,84.4 59.9,84.4 C59.9,84.4 60,84.4 60,84.4 C60,84.4 60.1,84.4 60.1,84.4 C60.1,84.4 60.1,84.4 60.1,84.4 C60.2,84.4 60.2,84.4 60.3,84.4 C60.4,84.4 60.5,84.4 60.5,84.3 C60.6,84.3 60.6,84.3 60.7,84.3 C60.7,84.3 60.8,84.3 60.8,84.3 C60.8,84.3 60.9,84.3 60.9,84.3 C60.9,84.3 61,84.3 61,84.3 C61,84.3 61.1,84.3 61.1,84.3 C61.2,84.3 61.2,84.3 61.3,84.2 C61.4,84.2 61.4,84.2 61.5,84.1 C61.5,84.1 61.5,84.1 61.5,84.1 C61.6,84.1 61.6,84.1 61.7,84 C61.8,84 61.8,84 61.9,83.9 C61.9,83.9 61.9,83.9 61.9,83.9 C61.9,83.9 61.9,83.9 61.9,83.9 C62,83.9 62,83.9 62.1,83.8 C62.1,83.8 62.1,83.8 62.1,83.8 C62.1,83.8 62.2,83.8 62.2,83.7 C62.2,83.7 62.3,83.7 62.3,83.7 C62.3,83.7 62.4,83.7 62.4,83.7 C62.5,83.7 62.5,83.7 62.6,83.6 C62.7,83.6 62.7,83.6 62.8,83.5 C62.8,83.5 62.9,83.5 62.9,83.5 C62.9,83.5 63,83.5 63,83.5 C63,83.5 63.1,83.5 63.1,83.5 C63.1,83.5 63.1,83.5 63.2,83.5 C63.2,83.5 63.2,83.5 63.2,83.5 C63.2,83.5 63.3,83.5 63.3,83.4 C63.4,83.4 63.4,83.3 63.5,83.3 C63.6,83.3 63.6,83.3 63.7,83.2 C63.8,83.2 63.8,83.1 63.9,83.1 C64,83.1 64,83.1 64.1,83 C64.1,83 64.1,83 64.2,83 C64.2,83 64.3,83 64.3,82.9 C64.3,82.9 64.3,82.9 64.3,82.9 C64.4,82.9 64.4,82.9 64.5,82.8 C64.5,82.8 64.6,82.8 64.6,82.7 C64.6,82.7 64.6,82.7 64.6,82.7 C64.6,82.7 64.6,82.7 64.6,82.7 C64.6,82.7 64.6,82.7 64.6,82.7 C64.6,82.7 64.7,82.7 64.7,82.6 C64.7,82.6 64.8,82.6 64.8,82.5 C64.8,82.5 64.8,82.5 64.9,82.5 C64.9,82.5 65,82.5 65,82.4 C65.1,82.4 65.2,82.3 65.3,82.3 C65.4,82.3 65.4,82.3 65.5,82.2 C65.6,82.2 65.6,82.1 65.7,82.1 C65.7,82.1 65.7,82.1 65.7,82.1 C65.7,82.1 65.7,82.1 65.8,82.1 C65.8,82.1 65.9,82.1 65.9,82.1 C66,82.1 66,82 66.1,82 C66.1,82 66.2,82 66.2,81.9 C66.2,81.9 66.2,81.9 66.3,81.9 C66.4,81.9 66.4,81.9 66.5,81.8 C66.5,81.8 66.5,81.8 66.5,81.8 C66.5,81.8 66.6,81.8 66.6,81.7 C66.6,81.7 66.7,81.7 66.7,81.7 C66.7,81.7 66.7,81.7 66.8,81.7 C66.9,81.7 66.9,81.6 67,81.6 C67,81.6 67,81.6 67,81.6 C67,81.6 67.1,81.6 67.1,81.5 C67.1,81.5 67.2,81.5 67.2,81.4 C67.2,81.4 67.2,81.4 67.2,81.4 C67.3,81.4 67.3,81.4 67.4,81.3 C67.5,81.3 67.5,81.2 67.6,81.2 C67.6,81.2 67.7,81.2 67.7,81.2 C67.7,81.2 67.7,81.2 67.7,81.2 C67.8,81.2 67.9,81.1 67.9,81.1 C67.9,81.1 68,81.1 68,81.1 C68.1,81.1 68.1,81.1 68.2,81 C68.3,80.9 68.3,81 68.4,80.9 C68.4,80.9 68.4,80.9 68.4,80.9 C68.5,80.9 68.7,80.8 68.8,80.8 C69.1,80.7 69.4,80.6 69.7,80.5 C69.9,80.4 70.1,80.4 70.3,80.4 C71.5,80.1 72.8,80 74.5,80 C75.2,80 75.9,80 76.5,80.1 C76.5,80.1 76.5,80.1 76.6,80.1 C76.8,80.1 77,80.1 77.1,80.2 C77.1,80.2 77.1,80.2 77.2,80.2 C78.1,80.3 78.8,80.5 79.5,80.7 C79.5,80.7 79.6,80.7 79.6,80.7 C79.9,80.8 80.3,80.9 80.6,81 C80.6,81 80.7,81 80.7,81 C81,81.1 81.3,81.2 81.6,81.4 C81.7,81.4 81.7,81.5 81.8,81.5 C82.2,81.7 82.5,81.8 82.9,82 C83.3,82.2 83.6,82.4 84,82.5 C84.1,82.5 84.1,82.6 84.2,82.6 C84.4,82.7 84.5,82.8 84.7,82.8 C84.8,82.8 84.8,82.9 84.9,82.9 C85,83 85.2,83 85.3,83.1 C86,83.4 86.8,83.7 87.7,84 C87.9,84.1 88.2,84.1 88.5,84.2 C88.9,84.3 89.4,84.4 89.9,84.5 C90.8,84.6 91.8,84.7 93,84.7 C93.7,84.7 94.3,84.7 94.9,84.6 C100.7,76.6 104.2,66.8 104.2,56.2 C104.2,38.4 94.6,23 80.4,14.7 Z" opacity=".5"/>
    <polygon fill="#F3F5FA" fill-rule="nonzero" points="68.5 64.2 68.4 64.2 68.4 64.2" opacity=".5"/>
    <path fill="url(#e)" fill-rule="nonzero" d="M47.2,9 C41.7,10 36.5,12 31.9,14.7 L22.4,84.4 C23.7,84.2 24.9,83.9 25.9,83.5 C26.5,83.3 27,83 27.5,82.8 C27.6,82.7 27.8,82.7 27.9,82.6 C28,82.5 28.2,82.5 28.3,82.4 C28.5,82.3 28.7,82.2 28.9,82.1 C29,82 29.2,82 29.3,81.9 C29.6,81.8 29.8,81.7 30.1,81.5 C30.2,81.5 30.2,81.4 30.3,81.4 C30.4,81.3 30.6,81.3 30.7,81.2 C30.8,81.1 31,81.1 31.1,81 C31.2,80.9 31.4,80.9 31.5,80.8 C31.6,80.7 31.8,80.7 31.9,80.6 C32.1,80.5 32.4,80.5 32.6,80.4 C32.7,80.4 32.8,80.4 32.8,80.3 C33,80.3 33.1,80.2 33.3,80.2 C34.5,79.9 35.9,79.8 37.6,79.8 C38.7,79.8 39.6,79.9 40.5,80 C40.6,80 40.8,80 40.9,80.1 C41.8,80.2 42.6,80.4 43.4,80.7 L47.2,9 Z"/>
    <path fill="url(#f)" fill-rule="nonzero" d="M65.1,9 L68.8,80.8 C69.1,80.7 69.4,80.6 69.7,80.5 C69.9,80.4 70.1,80.4 70.3,80.4 C71.5,80.1 72.8,80 74.5,80 C75.2,80 75.9,80 76.5,80.1 C76.5,80.1 76.5,80.1 76.6,80.1 C76.8,80.1 77,80.1 77.1,80.2 C77.1,80.2 77.1,80.2 77.2,80.2 C78.1,80.3 78.8,80.5 79.5,80.7 C79.5,80.7 79.6,80.7 79.6,80.7 C79.9,80.8 80.3,80.9 80.6,81 C80.6,81 80.7,81 80.7,81 C81,81.1 81.3,81.2 81.6,81.4 C81.7,81.4 81.7,81.5 81.8,81.5 C82.2,81.7 82.5,81.8 82.9,82 C83.3,82.2 83.6,82.4 84,82.5 C84.1,82.5 84.1,82.6 84.2,82.6 C84.4,82.7 84.5,82.8 84.7,82.8 C84.8,82.8 84.8,82.9 84.9,82.9 C85,83 85.2,83 85.3,83.1 C86,83.4 86.8,83.7 87.7,84 C87.9,84.1 88.2,84.1 88.5,84.2 C88.9,84.3 89.4,84.4 89.9,84.5 L80.4,14.7 C75.8,12 70.6,10 65.1,9 Z"/>
  </g>
</svg>
