<svg xmlns="http://www.w3.org/2000/svg" width="142" height="142" viewBox="0 0 142 142" xmlns:xlink="http://www.w3.org/1999/xlink">
  <defs>
    <circle id="b" cx="56" cy="56" r="56"/>
    <filter id="a" width="144.6%" height="144.6%" x="-22.3%" y="-17.9%" filterUnits="objectBoundingBox">
      <feOffset dy="5" in="SourceAlpha" result="shadowOffsetOuter1"/>
      <feGaussianBlur stdDeviation="7.5" in="shadowOffsetOuter1" result="shadowBlurOuter1"/>
      <feColorMatrix values="0 0 0 0 0.440703533 0 0 0 0 0.503310129 0 0 0 0 0.68486926 0 0 0 0.2 0" in="shadowBlurOuter1"/>
    </filter>
    <linearGradient id="c" x1="14.654%" x2="85.365%" y1="85.348%" y2="14.638%">
      <stop stop-color="#B34990" offset="0%"/>
      <stop stop-color="#F95481" offset="100%"/>
    </linearGradient>
    <linearGradient id="d" x1="-12.25%" x2="76.834%" y1="84.625%" y2="7.134%">
      <stop stop-color="#FFFFFF" stop-opacity="0" offset="0%"/>
      <stop stop-color="#FFFFFF" offset="100%"/>
    </linearGradient>
    <linearGradient id="e" x1="49.962%" x2="49.962%" y1="100.172%" y2=".06%">
      <stop stop-color="#FFFFFF" stop-opacity="0" offset="0%"/>
      <stop stop-color="#FFFFFF" offset="100%"/>
    </linearGradient>
    <linearGradient id="f" x1="50.017%" x2="50.017%" y1="100.166%" y2=".092%">
      <stop stop-color="#FFFFFF" stop-opacity="0" offset="0%"/>
      <stop stop-color="#FFFFFF" offset="100%"/>
    </linearGradient>
  </defs>
  <g fill="none" fill-rule="evenodd" transform="translate(15 10)">
    <use fill="black" filter="url(#a)" xlink:href="#b"/>
    <use fill="#FFFFFF" xlink:href="#b"/>
    <circle cx="56" cy="56.1" r="48" fill="url(#c)" fill-rule="nonzero"/>
    <path fill="url(#d)" fill-rule="nonzero" d="M104,56.1 C104,54.4 103.9,52.8 103.8,51.2 L36.4,12.3 C33.4,13.7 30.5,15.3 27.8,17.3 L27.8,94.9 C30.5,96.8 33.3,98.5 36.4,99.9 L103.8,61 C103.9,59.4 104,57.7 104,56.1 Z" opacity=".25"/>
    <path fill="url(#e)" fill-rule="nonzero" d="M90.4,54 L40.5,25.2 C38.9,24.3 37,25.4 37,27.2 L37,84.8 C37,86.6 39,87.8 40.5,86.8 L90.4,58 C91.9,57.2 91.9,55 90.4,54 Z" opacity=".5"/>
    <path fill="url(#f)" fill-rule="nonzero" d="M73.9,54.4 L48.4,39.6 C47.1,38.8 45.4,39.8 45.4,41.3 L45.4,70.8 C45.4,72.3 47.1,73.3 48.4,72.5 L73.9,57.8 C75.3,57.1 75.3,55.1 73.9,54.4 Z"/>
  </g>
</svg>
