<svg xmlns="http://www.w3.org/2000/svg" width="142" height="142" viewBox="0 0 142 142" xmlns:xlink="http://www.w3.org/1999/xlink">
  <defs>
    <circle id="b" cx="56" cy="56" r="56"/>
    <filter id="a" width="144.6%" height="144.6%" x="-22.3%" y="-17.9%" filterUnits="objectBoundingBox">
      <feOffset dy="5" in="SourceAlpha" result="shadowOffsetOuter1"/>
      <feGaussianBlur stdDeviation="7.5" in="shadowOffsetOuter1" result="shadowBlurOuter1"/>
      <feColorMatrix values="0 0 0 0 0.440703533 0 0 0 0 0.503310129 0 0 0 0 0.68486926 0 0 0 0.2 0" in="shadowBlurOuter1"/>
    </filter>
    <linearGradient id="c" x1="14.621%" x2="85.331%" y1="85.348%" y2="14.638%">
      <stop stop-color="#F95481" offset="0%"/>
      <stop stop-color="#FA6D62" offset="100%"/>
    </linearGradient>
    <linearGradient id="d" x1="49.976%" x2="49.976%" y1="99.992%" y2="-.054%">
      <stop stop-color="#FFFFFF" stop-opacity="0" offset="0%"/>
      <stop stop-color="#FFFFFF" offset="100%"/>
    </linearGradient>
    <linearGradient id="e" x1="49.965%" x2="49.965%" y1="99.991%" y2=".054%">
      <stop stop-color="#FFFFFF" stop-opacity="0" offset="0%"/>
      <stop stop-color="#FFFFFF" offset="100%"/>
    </linearGradient>
    <linearGradient id="f" x1="49.996%" x2="49.996%" y1="99.985%" y2="-.018%">
      <stop stop-color="#FFFFFF" stop-opacity="0" offset="0%"/>
      <stop stop-color="#FFFFFF" offset="100%"/>
    </linearGradient>
  </defs>
  <g fill="none" fill-rule="evenodd" transform="translate(15 10)">
    <use fill="black" filter="url(#a)" xlink:href="#b"/>
    <use fill="#FFFFFF" xlink:href="#b"/>
    <circle cx="56.2" cy="56.1" r="48" fill="url(#c)" fill-rule="nonzero"/>
    <path fill="url(#d)" fill-rule="nonzero" d="M85.2,17.9 C82.8,22.3 79.9,25.7 75.3,25.7 C62.5,25.7 62.5,25.7 49.9,25.7 C37.3,25.7 36.7,51.8 23.9,51.8 C15.6,51.8 12.8,51.8 8.4,51.8 C8.3,53.2 8.2,54.7 8.2,56.1 C8.2,82.6 29.7,104.1 56.2,104.1 C82.7,104.1 104.2,82.6 104.2,56.1 C104.2,40.5 96.7,26.6 85.2,17.9 Z" opacity=".25"/>
    <path fill="url(#e)" fill-rule="nonzero" d="M75.3,48.7 C62.5,48.7 62.5,48.7 49.9,48.7 C37.3,48.7 36.7,68.4 23.9,68.4 C16.5,68.4 13.5,68.4 9.8,68.4 C15.2,89 33.9,104.1 56.2,104.1 C82.7,104.1 104.2,82.6 104.2,56.1 C104.2,46.4 101.3,37.4 96.4,29.8 C87.5,33.5 86.5,48.7 75.3,48.7 Z" opacity=".5"/>
    <path fill="url(#f)" fill-rule="nonzero" d="M100.5,60.1 C87.5,60.1 88,72.9 75.2,72.9 C62.4,72.9 62.4,72.9 49.8,72.9 C37.2,72.9 36.7,85.7 23.9,85.7 C21.7,85.7 19.9,85.7 18.4,85.7 C27.2,96.9 40.9,104.1 56.2,104.1 C81.4,104.1 102,84.7 104,60.1 C103,60.1 101.8,60.1 100.5,60.1 Z"/>
  </g>
</svg>
